<svg width="15" height="17" viewBox="0 0 15 17" fill="none" xmlns="http://www.w3.org/2000/svg">
<path d="M3.44444 16.0151C2.95555 16.0151 2.53718 15.8412 2.18933 15.4934C1.84148 15.1455 1.66726 14.7268 1.66666 14.2374V2.6818C1.41481 2.6818 1.20385 2.59647 1.03377 2.4258C0.8637 2.25514 0.778367 2.04417 0.777774 1.79291C0.777181 1.54166 0.862515 1.33069 1.03377 1.16003C1.20503 0.989359 1.416 0.904026 1.66666 0.904026H5.22222C5.22222 0.652174 5.30755 0.441211 5.47822 0.271137C5.64888 0.101063 5.85985 0.0157293 6.11111 0.0151367H9.66666C9.91851 0.0151367 10.1298 0.10047 10.3004 0.271137C10.4711 0.441803 10.5561 0.652766 10.5556 0.904026H14.1111C14.363 0.904026 14.5742 0.989359 14.7449 1.16003C14.9156 1.33069 15.0006 1.54166 15 1.79291C14.9994 2.04417 14.9141 2.25543 14.744 2.42669C14.5739 2.59795 14.363 2.68299 14.1111 2.6818V14.2374C14.1111 14.7262 13.9372 15.1449 13.5893 15.4934C13.2415 15.8418 12.8228 16.0157 12.3333 16.0151H3.44444ZM12.3333 2.6818H3.44444V14.2374H12.3333V2.6818ZM6.11111 12.4596C6.36296 12.4596 6.57422 12.3742 6.74488 12.2036C6.91555 12.0329 7.00059 11.822 7 11.5707V5.34847C7 5.09662 6.91466 4.88566 6.744 4.71558C6.57333 4.54551 6.36237 4.46017 6.11111 4.45958C5.85985 4.45899 5.64888 4.54432 5.47822 4.71558C5.30755 4.88684 5.22222 5.0978 5.22222 5.34847V11.5707C5.22222 11.8225 5.30755 12.0338 5.47822 12.2045C5.64888 12.3751 5.85985 12.4602 6.11111 12.4596ZM9.66666 12.4596C9.91851 12.4596 10.1298 12.3742 10.3004 12.2036C10.4711 12.0329 10.5561 11.822 10.5556 11.5707V5.34847C10.5556 5.09662 10.4702 4.88566 10.2996 4.71558C10.1289 4.54551 9.91792 4.46017 9.66666 4.45958C9.4154 4.45899 9.20444 4.54432 9.03377 4.71558C8.86311 4.88684 8.77777 5.0978 8.77777 5.34847V11.5707C8.77777 11.8225 8.86311 12.0338 9.03377 12.2045C9.20444 12.3751 9.4154 12.4602 9.66666 12.4596Z" fill="#006EE9"/>
</svg>
