<svg width="17" height="17" viewBox="0 0 17 17" fill="none" xmlns="http://www.w3.org/2000/svg">
<path d="M2.36879 16.03C1.92852 16.03 1.55175 15.8734 1.23849 15.5601C0.925223 15.2468 0.768325 14.8698 0.767792 14.429V3.22201C0.767792 2.78174 0.92469 2.40497 1.23849 2.0917C1.55228 1.77844 1.92905 1.62154 2.36879 1.62101H9.51324L7.91225 3.22201H2.36879V14.429H13.5758V8.86553L15.1768 7.26453V14.429C15.1768 14.8693 15.0201 15.2463 14.7069 15.5601C14.3936 15.8739 14.0166 16.0305 13.5758 16.03H2.36879ZM5.57079 11.227V7.82488L12.9154 0.4803C13.0755 0.3202 13.2556 0.200125 13.4557 0.120075C13.6558 0.0400249 13.856 0 14.0561 0C14.2695 0 14.4731 0.0400249 14.6669 0.120075C14.8606 0.200125 15.0372 0.3202 15.1968 0.4803L16.3175 1.62101C16.4642 1.78111 16.5776 1.95802 16.6577 2.15174C16.7377 2.34546 16.7778 2.54212 16.7778 2.74171C16.7778 2.9413 16.7412 3.13822 16.6681 3.33248C16.595 3.52673 16.4781 3.70338 16.3175 3.86241L8.97291 11.227H5.57079ZM7.17178 9.626H8.29248L12.9354 4.98311L12.375 4.42276L11.7947 3.86241L7.17178 8.48529V9.626Z" fill="#006EE9"/>
</svg>
