<svg width="113" height="95" viewBox="0 0 113 95" fill="none" xmlns="http://www.w3.org/2000/svg">
<path d="M18.7424 62.79V68.01H13.0424V83.79H7.22242V68.01H1.52242V62.79H18.7424ZM33.1136 83.79L31.9736 80.4H24.5336L23.3636 83.79H17.1536L25.4036 62.79H31.0736L39.5036 83.79H33.1136ZM30.5636 75.87L28.2236 69.36L25.9436 75.87H30.5636ZM48.0789 84.33C42.9489 84.33 39.6189 81.6 39.6189 77.01H45.5889C45.5889 78.51 46.7589 79.26 48.0789 79.26C49.2789 79.26 50.4489 78.6 50.4489 77.46C50.4489 76.14 48.7989 75.75 46.7889 75.27C43.7589 74.52 39.8889 73.59 39.8889 68.82C39.8889 64.68 42.9189 62.31 47.8689 62.31C52.9089 62.31 55.8189 64.89 55.8189 69.18H49.9989C49.9989 67.83 49.0089 67.2 47.8089 67.2C46.7889 67.2 45.7989 67.65 45.7989 68.64C45.7989 69.84 47.3889 70.23 49.3389 70.74C52.4589 71.52 56.4789 72.57 56.4789 77.34C56.4789 81.93 52.9689 84.33 48.0789 84.33ZM78.1961 83.79H71.3261L65.2961 74.52V83.79H59.5061V62.79H65.2961V71.67L70.8461 62.79H77.5661L70.8461 72.99L78.1961 83.79Z" fill="#006EE9"/>
<path d="M85.7561 83.79V62.79H91.6361V83.79H85.7561ZM111.438 62.79V68.01H105.738V83.79H99.9177V68.01H94.2177V62.79H111.438Z" fill="#133FDA"/>
<path d="M54.36 37.45H59.33V48.79H50.37C42.04 48.79 36.93 43.68 36.93 35.28V21.07H30V17.99L46.94 0H49.67V10.99H59.12V21.07H49.95V33.11C49.95 35.77 51.63 37.45 54.36 37.45Z" fill="#133FDA"/>
<path d="M74.581 21.79C70.3376 21.79 66.2679 23.4757 63.2673 26.4763C60.2667 29.4769 58.581 33.5465 58.581 37.79L74.581 37.79L74.581 21.79Z" fill="#133FDA"/>
<path d="M83.581 32.79C79.3376 32.79 75.2679 34.4757 72.2673 37.4763C69.2667 40.4769 67.581 44.5465 67.581 48.79L83.581 48.79L83.581 32.79Z" fill="#006EE9"/>
</svg>
